<svg width="1200" height="630" viewBox="0 0 1200 630" fill="none" xmlns="http://www.w3.org/2000/svg">
  <rect width="1200" height="630" fill="#050505"/>
  <circle cx="956" cy="118" r="182" fill="url(#paint0_radial)" fill-opacity="0.7"/>
  <circle cx="219" cy="489" r="160" fill="url(#paint1_radial)" fill-opacity="0.35"/>
  <path d="M0 0H1200V630H0V0Z" fill="url(#paint2_linear)" fill-opacity="0.12"/>
  <g opacity="0.18">
    <path d="M104 102H1096" stroke="#E2E8F0"/>
    <path d="M104 166H1096" stroke="#E2E8F0"/>
    <path d="M104 230H1096" stroke="#E2E8F0"/>
    <path d="M104 294H1096" stroke="#E2E8F0"/>
    <path d="M104 358H1096" stroke="#E2E8F0"/>
    <path d="M104 422H1096" stroke="#E2E8F0"/>
    <path d="M104 486H1096" stroke="#E2E8F0"/>
    <path d="M104 550H1096" stroke="#E2E8F0"/>
    <path d="M168 70V566" stroke="#E2E8F0"/>
    <path d="M264 70V566" stroke="#E2E8F0"/>
    <path d="M360 70V566" stroke="#E2E8F0"/>
    <path d="M456 70V566" stroke="#E2E8F0"/>
    <path d="M552 70V566" stroke="#E2E8F0"/>
    <path d="M648 70V566" stroke="#E2E8F0"/>
    <path d="M744 70V566" stroke="#E2E8F0"/>
    <path d="M840 70V566" stroke="#E2E8F0"/>
    <path d="M936 70V566" stroke="#E2E8F0"/>
    <path d="M1032 70V566" stroke="#E2E8F0"/>
  </g>
  <rect x="88" y="84" width="188" height="46" rx="23" fill="#111827" stroke="#334155"/>
  <circle cx="123" cy="107" r="8" fill="#FBBF24"/>
  <text x="145" y="113" fill="#E2E8F0" font-family="Arial, sans-serif" font-size="16" letter-spacing="3">AZNIX HOLDING</text>
  <text x="88" y="274" fill="white" font-family="Arial, sans-serif" font-size="68" font-weight="700">
    <tspan x="88" dy="0">Building the Future</tspan>
    <tspan x="88" dy="82">of Digital Infrastructure</tspan>
  </text>
  <text x="90" y="432" fill="#CBD5E1" font-family="Arial, sans-serif" font-size="28">
    <tspan x="90" dy="0">Technology ecosystem. Venture builder.</tspan>
    <tspan x="90" dy="40">Enterprise systems across SaaS, fintech, blockchain, and AI.</tspan>
  </text>
  <rect x="90" y="490" width="256" height="58" rx="29" fill="#FBBF24"/>
  <text x="139" y="526" fill="#0F172A" font-family="Arial, sans-serif" font-size="22" font-weight="700">Explore Ecosystem</text>
  <defs>
    <radialGradient id="paint0_radial" cx="0" cy="0" r="1" gradientUnits="userSpaceOnUse" gradientTransform="translate(956 118) rotate(90) scale(182)">
      <stop stop-color="#FBBF24"/>
      <stop offset="1" stop-color="#FBBF24" stop-opacity="0"/>
    </radialGradient>
    <radialGradient id="paint1_radial" cx="0" cy="0" r="1" gradientUnits="userSpaceOnUse" gradientTransform="translate(219 489) rotate(90) scale(160)">
      <stop stop-color="#F59E0B"/>
      <stop offset="1" stop-color="#F59E0B" stop-opacity="0"/>
    </radialGradient>
    <linearGradient id="paint2_linear" x1="600" y1="0" x2="600" y2="630" gradientUnits="userSpaceOnUse">
      <stop stop-color="white" stop-opacity="0.12"/>
      <stop offset="1" stop-color="white" stop-opacity="0"/>
    </linearGradient>
  </defs>
</svg>
